<svg width="21" height="17" viewBox="0 0 21 17" fill="none" xmlns="http://www.w3.org/2000/svg">
<path fill-rule="evenodd" clip-rule="evenodd" d="M15.75 6.375C15.0255 6.375 14.4375 6.851 14.4375 7.4375C14.4375 8.024 15.0255 8.5 15.75 8.5C16.4745 8.5 17.0625 8.024 17.0625 7.4375C17.0625 6.851 16.4745 6.375 15.75 6.375ZM10.5 13.8125C9.7335 13.8125 8.99325 13.7402 8.28187 13.6175L5.19225 15.121L5.2336 12.6565C2.86519 11.5037 1.3125 9.59756 1.3125 7.4375C1.3125 3.91691 5.42588 1.0625 10.5 1.0625C15.5741 1.0625 19.6875 3.91691 19.6875 7.4375C19.6875 10.9586 15.5741 13.8125 10.5 13.8125ZM10.5 0C4.70137 0 0 3.33041 0 7.4375C0 9.78509 1.53891 11.8756 3.9375 13.2382V17L8.53716 14.7406C9.17372 14.8256 9.82866 14.875 10.5 14.875C16.2986 14.875 21 11.5451 21 7.4375C21 3.33041 16.2986 0 10.5 0ZM5.25 6.375C4.5255 6.375 3.9375 6.851 3.9375 7.4375C3.9375 8.024 4.5255 8.5 5.25 8.5C5.9745 8.5 6.5625 8.024 6.5625 7.4375C6.5625 6.851 5.9745 6.375 5.25 6.375ZM10.5 6.375C9.7755 6.375 9.1875 6.851 9.1875 7.4375C9.1875 8.024 9.7755 8.5 10.5 8.5C11.2245 8.5 11.8125 8.024 11.8125 7.4375C11.8125 6.851 11.2245 6.375 10.5 6.375Z" fill="white"/>
</svg>
