<svg width="19" height="15" viewBox="0 0 19 15" fill="none" xmlns="http://www.w3.org/2000/svg">
<path fill-rule="evenodd" clip-rule="evenodd" d="M9.86487 0.109304C9.17819 -0.164672 8.34549 0.0963091 8.07594 0.669929L5.86772 5.36916H2.58604C1.15781 5.36916 0 6.29316 0 7.4329V12.9362C0 14.0761 1.15781 15 2.58604 15H14.9763C16.2013 15 17.2582 14.3141 17.5081 13.3572L18.9447 7.85384C19.2793 6.57225 18.0534 5.36916 16.4131 5.36916H11.9711L12.6077 3.84514C13.1503 2.54604 12.4134 1.12621 10.8786 0.513813L9.86487 0.109304ZM7.48197 5.85224L9.52205 1.51075L10.1076 1.7444C10.875 2.0506 11.2435 2.76051 10.9721 3.41006L10.3356 4.93408C9.96348 5.82497 10.7944 6.74499 11.9711 6.74499H16.4131C16.9598 6.74499 17.3684 7.14604 17.257 7.57324L17.114 8.12082H13.7922C13.3161 8.12082 12.9302 8.4288 12.9302 8.80874C12.9302 9.18868 13.3161 9.49666 13.7922 9.49666H16.7548L16.3956 10.8725H13.7922C13.3161 10.8725 12.9302 11.1805 12.9302 11.5604C12.9302 11.9403 13.3161 12.2483 13.7922 12.2483H16.0364L15.8203 13.0766C15.737 13.3956 15.3847 13.6242 14.9763 13.6242H6.03409V6.73859C6.68418 6.68851 7.24929 6.34744 7.48197 5.85224ZM4.31006 6.74499H2.58604C2.10996 6.74499 1.72402 7.05297 1.72402 7.4329V12.9362C1.72402 13.3162 2.10996 13.6242 2.58604 13.6242H4.31006V6.74499Z" fill="white"/>
</svg>
