<svg width="19" height="17" viewBox="0 0 19 17" fill="none" xmlns="http://www.w3.org/2000/svg">
<path fill-rule="evenodd" clip-rule="evenodd" d="M15.0417 10.4615C13.6404 10.4615 12.4173 11.0664 11.7135 11.9732L7.47413 9.97247C7.74805 9.52785 7.91667 9.03223 7.91667 8.5C7.91667 8.17111 7.83989 7.85988 7.73064 7.56042L12.141 5.47923C12.8638 6.12654 13.8914 6.53846 15.0417 6.53846C17.2283 6.53846 19 5.07515 19 3.26923C19 1.46331 17.2283 0 15.0417 0C12.8551 0 11.0833 1.46331 11.0833 3.26923C11.0833 3.59812 11.1601 3.90934 11.2694 4.20945L6.859 6.29C6.13621 5.64334 5.10862 5.23077 3.95833 5.23077C1.77175 5.23077 0 6.69408 0 8.5C0 10.3059 1.77175 11.7692 3.95833 11.7692C4.86083 11.7692 5.68337 11.5103 6.34916 11.0905L11.1269 13.3777C11.111 13.4954 11.0833 13.6092 11.0833 13.7308C11.0833 15.5367 12.8551 17 15.0417 17C17.2283 17 19 15.5367 19 13.7308C19 11.9248 17.2283 10.4615 15.0417 10.4615Z" fill="white"/>
</svg>
