<svg width="22" height="19" viewBox="0 0 22 19" fill="none" xmlns="http://www.w3.org/2000/svg">
<path d="M19.8023 1.60495H17.5787V0.660328C17.5787 0.295637 17.2223 0 16.7827 0C16.3431 0 15.9867 0.295637 15.9867 0.660328V1.60495H5.97611V0.660328C5.97611 0.295637 5.61973 0 5.18012 0C4.7405 0 4.38412 0.295637 4.38412 0.660328V1.60495H2.16055C0.9692 1.60495 0 2.40899 0 3.39727V16.6769C0 17.6652 0.969237 18.4692 2.16055 18.4692H19.8023C20.9937 18.4692 21.9628 17.6652 21.9628 16.6769V3.39727C21.9628 2.40896 20.9936 1.60495 19.8023 1.60495ZM1.59195 3.39727C1.59195 3.13677 1.8465 2.9256 2.16051 2.9256H4.38405V3.67915C4.38405 4.04384 4.74043 4.33948 5.18004 4.33948C5.61966 4.33948 5.97603 4.04384 5.97603 3.67915V2.92557H15.9867V3.67912C15.9867 4.04381 16.343 4.33945 16.7826 4.33945C17.2223 4.33945 17.5786 4.04381 17.5786 3.67912V2.92557H19.8022C20.1162 2.92557 20.3708 3.13677 20.3708 3.39723V5.05749H1.59195V3.39727ZM20.3709 16.6769C20.3709 16.9373 20.1163 17.1485 19.8023 17.1485H2.16055C1.8465 17.1485 1.59198 16.9373 1.59198 16.6769V6.37814H20.3709V16.6769Z" fill="#F8F9FC"/>
<path d="M10.716 16.4624H11.4105C12.6019 16.4624 13.5711 15.6583 13.5711 14.67V14.0938C13.5711 13.1056 12.6019 12.3015 11.4105 12.3015H10.716C9.52466 12.3015 8.55542 13.1056 8.55542 14.0938V14.67C8.55542 15.6583 9.52462 16.4624 10.716 16.4624ZM10.1474 14.0938C10.1474 13.8338 10.4025 13.6222 10.716 13.6222H11.4105C11.7241 13.6222 11.9792 13.8338 11.9792 14.0938V14.67C11.9792 14.9301 11.7241 15.1417 11.4105 15.1417H10.716C10.4025 15.1417 10.1474 14.9301 10.1474 14.67V14.0938Z" fill="#F8F9FC"/>
<path d="M11.4106 16.4776H10.716C9.51443 16.4776 8.53687 15.6666 8.53687 14.6698V14.0936C8.53687 13.0968 9.51443 12.2859 10.716 12.2859H11.4106C12.6122 12.2859 13.5897 13.0968 13.5897 14.0936V14.6698C13.5897 15.6666 12.6122 16.4776 11.4106 16.4776ZM10.716 12.3167C9.53494 12.3167 8.57406 13.1138 8.57406 14.0936V14.6698C8.57406 15.6496 9.53494 16.4467 10.716 16.4467H11.4106C12.5917 16.4467 13.5526 15.6496 13.5526 14.6698V14.0936C13.5526 13.1139 12.5917 12.3167 11.4106 12.3167H10.716ZM11.4106 15.1569H10.716C10.3922 15.1569 10.1288 14.9384 10.1288 14.6698V14.0936C10.1288 13.8251 10.3922 13.6065 10.716 13.6065H11.4106C11.7344 13.6065 11.9978 13.8251 11.9978 14.0936V14.6698C11.9978 14.9384 11.7344 15.1569 11.4106 15.1569ZM10.716 13.6374C10.4128 13.6374 10.166 13.8421 10.166 14.0936V14.6698C10.166 14.9214 10.4128 15.1261 10.716 15.1261H11.4106C11.7139 15.1261 11.9606 14.9214 11.9606 14.6698V14.0936C11.9606 13.8421 11.7139 13.6374 11.4106 13.6374H10.716Z" fill="#F8F9FC"/>
<path d="M4.5148 16.4624H5.20938C6.40073 16.4624 7.36993 15.6583 7.36993 14.67V14.0938C7.36993 13.1056 6.40069 12.3015 5.20938 12.3015H4.5148C3.32345 12.3015 2.35425 13.1056 2.35425 14.0938V14.67C2.35425 15.6583 3.32345 16.4624 4.5148 16.4624ZM3.94619 14.0938C3.94619 13.8338 4.20127 13.6222 4.51476 13.6222H5.20934C5.52287 13.6222 5.77791 13.8338 5.77791 14.0938V14.67C5.77791 14.9301 5.52287 15.1417 5.20934 15.1417H4.51476C4.20123 15.1417 3.94619 14.9301 3.94619 14.67V14.0938Z" fill="#F8F9FC"/>
<path d="M5.20916 16.4776H4.51458C3.31301 16.4776 2.33545 15.6666 2.33545 14.6698V14.0936C2.33545 13.0968 3.31301 12.2859 4.51458 12.2859H5.20916C6.41073 12.2859 7.38829 13.0968 7.38829 14.0936V14.6698C7.38829 15.6666 6.41073 16.4776 5.20916 16.4776ZM4.51458 12.3167C3.33349 12.3167 2.37261 13.1138 2.37261 14.0936V14.6698C2.37261 15.6496 3.33349 16.4467 4.51458 16.4467H5.20916C6.39025 16.4467 7.35113 15.6496 7.35113 14.6698V14.0936C7.35113 13.1139 6.39025 12.3167 5.20916 12.3167H4.51458ZM5.20916 15.1569H4.51458C4.19083 15.1569 3.92743 14.9384 3.92743 14.6698V14.0936C3.92743 13.8251 4.19083 13.6065 4.51458 13.6065H5.20916C5.53291 13.6065 5.7963 13.8251 5.7963 14.0936V14.6698C5.79627 14.9384 5.53287 15.1569 5.20916 15.1569ZM4.51458 13.6374C4.21131 13.6374 3.96459 13.8421 3.96459 14.0936V14.6698C3.96459 14.9214 4.21131 15.1261 4.51458 15.1261H5.20916C5.51243 15.1261 5.75914 14.9214 5.75914 14.6698V14.0936C5.75914 13.8421 5.51243 13.6374 5.20916 13.6374H4.51458Z" fill="#F8F9FC"/>
<path d="M16.884 16.4624H17.5786C18.7698 16.4624 19.7391 15.6583 19.7391 14.67V14.0938C19.7391 13.1056 18.7698 12.3015 17.5786 12.3015H16.884C15.6926 12.3015 14.7234 13.1056 14.7234 14.0938V14.67C14.7234 15.6583 15.6926 16.4624 16.884 16.4624ZM16.3154 14.0938C16.3154 13.8338 16.5704 13.6222 16.884 13.6222H17.5786C17.892 13.6222 18.1471 13.8338 18.1471 14.0938V14.67C18.1471 14.9301 17.892 15.1417 17.5786 15.1417H16.884C16.5704 15.1417 16.3154 14.9301 16.3154 14.67V14.0938Z" fill="#F8F9FC"/>
<path d="M17.5786 16.4776H16.884C15.6824 16.4776 14.7048 15.6666 14.7048 14.6698V14.0936C14.7048 13.0968 15.6824 12.2859 16.884 12.2859H17.5786C18.7801 12.2859 19.7577 13.0968 19.7577 14.0936V14.6698C19.7577 15.6666 18.7801 16.4776 17.5786 16.4776ZM16.884 12.3167C15.7029 12.3167 14.742 13.1138 14.742 14.0936V14.6698C14.742 15.6496 15.7029 16.4467 16.884 16.4467H17.5786C18.7596 16.4467 19.7205 15.6496 19.7205 14.6698V14.0936C19.7205 13.1139 18.7597 12.3167 17.5786 12.3167H16.884ZM17.5786 15.1569H16.884C16.5602 15.1569 16.2968 14.9384 16.2968 14.6698V14.0936C16.2968 13.8251 16.5602 13.6065 16.884 13.6065H17.5786C17.9023 13.6065 18.1657 13.8251 18.1657 14.0936V14.6698C18.1657 14.9384 17.9023 15.1569 17.5786 15.1569ZM16.884 13.6374C16.5807 13.6374 16.334 13.8421 16.334 14.0936V14.6698C16.334 14.9214 16.5807 15.1261 16.884 15.1261H17.5786C17.8818 15.1261 18.1285 14.9214 18.1285 14.6698V14.0936C18.1285 13.8421 17.8818 13.6374 17.5786 13.6374H16.884Z" fill="#F8F9FC"/>
<path d="M10.716 11.3212H11.4105C12.6019 11.3212 13.5711 10.5172 13.5711 9.52892V8.95272C13.5711 7.96442 12.6019 7.1604 11.4105 7.1604H10.716C9.52466 7.1604 8.55542 7.96445 8.55542 8.95272V9.52892C8.55542 10.5172 9.52462 11.3212 10.716 11.3212ZM10.1474 8.95272C10.1474 8.69263 10.4025 8.48106 10.716 8.48106H11.4105C11.7241 8.48106 11.9792 8.69263 11.9792 8.95272V9.52892C11.9792 9.78901 11.7241 10.0006 11.4105 10.0006H10.716C10.4025 10.0006 10.1474 9.78901 10.1474 9.52892V8.95272Z" fill="#F8F9FC"/>
<path d="M11.4106 11.3367H10.716C9.51443 11.3367 8.53687 10.5257 8.53687 9.52895V8.95275C8.53687 7.95597 9.51443 7.14502 10.716 7.14502H11.4106C12.6122 7.14502 13.5897 7.95597 13.5897 8.95275V9.52895C13.5897 10.5258 12.6122 11.3367 11.4106 11.3367ZM10.716 7.17585C9.53494 7.17585 8.57406 7.97296 8.57406 8.95275V9.52895C8.57406 10.5087 9.53494 11.3059 10.716 11.3059H11.4106C12.5917 11.3059 13.5526 10.5087 13.5526 9.52895V8.95275C13.5526 7.97296 12.5917 7.17585 11.4106 7.17585H10.716ZM11.4106 10.016H10.716C10.3922 10.016 10.1288 9.79752 10.1288 9.52895V8.95275C10.1288 8.68418 10.3922 8.46567 10.716 8.46567H11.4106C11.7344 8.46567 11.9978 8.68418 11.9978 8.95275V9.52895C11.9978 9.79752 11.7344 10.016 11.4106 10.016ZM10.716 8.4965C10.4128 8.4965 10.166 8.70117 10.166 8.95275V9.52895C10.166 9.7805 10.4128 9.9852 10.716 9.9852H11.4106C11.7139 9.9852 11.9606 9.7805 11.9606 9.52895V8.95275C11.9606 8.70117 11.7139 8.4965 11.4106 8.4965H10.716Z" fill="#F8F9FC"/>
<path d="M16.884 11.3212H17.5786C18.7698 11.3212 19.7391 10.5172 19.7391 9.52892V8.95272C19.7391 7.96442 18.7698 7.1604 17.5786 7.1604H16.884C15.6926 7.1604 14.7234 7.96445 14.7234 8.95272V9.52892C14.7234 10.5172 15.6926 11.3212 16.884 11.3212ZM16.3154 8.95272C16.3154 8.69263 16.5704 8.48106 16.884 8.48106H17.5786C17.892 8.48106 18.1471 8.69263 18.1471 8.95272V9.52892C18.1471 9.78901 17.892 10.0006 17.5786 10.0006H16.884C16.5704 10.0006 16.3154 9.78901 16.3154 9.52892V8.95272Z" fill="#F8F9FC"/>
<path d="M17.5786 11.3367H16.884C15.6824 11.3367 14.7048 10.5257 14.7048 9.52895V8.95275C14.7048 7.95597 15.6824 7.14502 16.884 7.14502H17.5786C18.7801 7.14502 19.7577 7.95597 19.7577 8.95275V9.52895C19.7577 10.5258 18.7801 11.3367 17.5786 11.3367ZM16.884 7.17585C15.7029 7.17585 14.742 7.97296 14.742 8.95275V9.52895C14.742 10.5087 15.7029 11.3059 16.884 11.3059H17.5786C18.7596 11.3059 19.7205 10.5087 19.7205 9.52895V8.95275C19.7205 7.97296 18.7597 7.17585 17.5786 7.17585H16.884ZM17.5786 10.016H16.884C16.5602 10.016 16.2968 9.79752 16.2968 9.52895V8.95275C16.2968 8.68418 16.5602 8.46567 16.884 8.46567H17.5786C17.9023 8.46567 18.1657 8.68418 18.1657 8.95275V9.52895C18.1657 9.79752 17.9023 10.016 17.5786 10.016ZM16.884 8.4965C16.5807 8.4965 16.334 8.70117 16.334 8.95275V9.52895C16.334 9.7805 16.5807 9.9852 16.884 9.9852H17.5786C17.8818 9.9852 18.1285 9.7805 18.1285 9.52895V8.95275C18.1285 8.70117 17.8818 8.4965 17.5786 8.4965H16.884Z" fill="#F8F9FC"/>
</svg>
